PathFileType	4	(X/Y/Z)	Run_300 02
DataRate	CameraRate	NumFrames	NumMarkers	Units	OrigDataRate	OrigDataStartFrame	OrigNumFrames
120	120	4	42	mm	120	477	128
Frame#	Time	LASI			RASI			LPSI			RPSI			RTH1			RTH2			RTH3			LTH1			LTH2			LTH3			RTB1			RTB2			LTB1			LTB2			LTB3			RCAL			RTOE			RMT5			LCAL			LTOE			LMT5			LACR			RACR			CLAV			C7			RUA1			RUA2			RUA3			RLEL			RMEL			LUA1			LUA2			LUA3			LLEL			LMEL			RFAsuperior			RFAradius			RFAulna			LFAsuperior			LFAradius			LFAulna			RTB3		
		X1	Y1	Z1	X2	Y2	Z2	X3	Y3	Z3	X4	Y4	Z4	X5	Y5	Z5	X6	Y6	Z6	X7	Y7	Z7	X8	Y8	Z8	X9	Y9	Z9	X10	Y10	Z10	X11	Y11	Z11	X12	Y12	Z12	X13	Y13	Z13	X14	Y14	Z14	X15	Y15	Z15	X16	Y16	Z16	X17	Y17	Z17	X18	Y18	Z18	X19	Y19	Z19	X20	Y20	Z20	X21	Y21	Z21	X22	Y22	Z22	X23	Y23	Z23	X24	Y24	Z24	X25	Y25	Z25	X26	Y26	Z26	X27	Y27	Z27	X28	Y28	Z28	X29	Y29	Z29	X30	Y30	Z30	X31	Y31	Z31	X32	Y32	Z32	X33	Y33	Z33	X34	Y34	Z34	X35	Y35	Z35	X36	Y36	Z36	X37	Y37	Z37	X38	Y38	Z38	X39	Y39	Z39	X40	Y40	Z40	X41	Y41	Z41	X42	Y42	Z42	

477	  3.975000	918.277894	1058.226618	-463.818824	936.233206	1051.042092	-205.468699	745.739338	1093.826662	-355.601573	750.291445	1084.175510	-273.857699	924.904176	889.234306	-153.403428	1030.871481	826.688967	-164.864029	1023.064854	700.160019	-183.840675	836.830878	845.963519	-502.642728	882.975261	717.847669	-484.041434	805.448448	611.621297	-453.266389	1068.229490	470.257312	-270.591967	1005.895114	441.957253	-199.329973	794.443994	377.284913	-369.770760	723.491912	310.299378	-410.866033	678.425910	214.941222	-334.092696	745.090755	337.838181	-272.421170	898.666801	162.362393	-272.443873	830.243103	194.351551	-184.998629	505.604374	137.955480	-311.351045	729.714980	 69.096843	-293.902057	652.905810	 56.112726	-381.569184	980.171125	1521.461933	-493.222668	921.277592	1532.465982	-153.387643	995.146983	1470.315782	-278.494946	875.985044	1562.899006	-334.371953	855.167341	1452.325964	-76.859597	816.958670	1369.015587	-83.167312	744.995734	1399.970818	-67.065163	656.719387	1292.612294	-33.534179	639.791300	1293.279370	-115.575940	973.569828	1426.304023	-566.035950	984.160057	1354.263972	-556.005231	891.280678	1336.810000	-580.075385	909.272471	1177.151340	-633.471514	852.032438	1161.860876	-567.009122	740.161732	1222.998539	-30.572382	867.431630	1124.561867	-113.143520	834.392533	1091.669837	-57.197054	998.705548	1189.603413	-590.458828	1106.951074	1231.886093	-452.662945	1127.900596	1166.832782	-475.902120	950.229941	358.075450	-266.766404	
478	  3.983333	919.975072	1061.314243	-465.001242	937.420792	1057.482822	-206.292887	747.498527	1099.149795	-356.934248	751.477165	1090.290524	-274.550849	926.900711	897.253127	-152.740041	1032.761634	834.999195	-164.554273	1026.092812	708.048347	-183.671727	832.133745	850.036299	-501.741898	873.906753	720.877259	-482.206462	791.434339	617.267289	-452.274327	1080.536762	473.638274	-270.960383	1020.278889	440.341275	-200.241531	773.859394	382.470973	-369.762128	702.436821	316.393592	-411.049419	657.139887	220.759767	-334.717871	768.620260	317.407569	-275.432544	934.531491	153.411214	-276.024036	863.352413	179.495769	-188.737695	484.853643	146.737070	-312.389516	705.831471	 68.671778	-294.268073	628.923068	 57.822923	-381.632839	982.101531	1528.381768	-491.787970	918.719067	1538.543741	-153.252413	994.468529	1476.961087	-276.904032	876.011428	1568.326277	-334.608336	850.643780	1460.961201	-77.538518	811.578158	1377.916095	-84.300168	739.858097	1409.935541	-69.456220	648.505819	1304.247966	-38.450078	633.863762	1305.591468	-120.911411	976.381012	1433.464089	-564.906619	987.020025	1361.377204	-554.513938	894.499639	1344.232089	-580.762315	912.403780	1184.120191	-632.602834	853.928421	1169.310029	-566.769121	731.024814	1233.973589	-33.832804	859.145283	1134.588003	-114.428366	825.277633	1102.195328	-58.609029	1001.191498	1198.077841	-588.738008	1106.276162	1243.487699	-449.608422	1128.547015	1178.312048	-471.727199	964.915933	356.185996	-267.656103	
479	  3.991667	922.150483	1064.676958	-465.504795	938.687074	1064.267693	-206.932509	749.670926	1104.554433	-358.407574	752.814553	1096.695270	-275.551643	928.403207	905.278216	-152.152421	1034.008408	842.575235	-164.207734	1027.900860	715.227871	-184.038673	828.087057	854.382675	-500.895703	865.270093	724.412395	-480.441526	778.148128	623.626138	-451.679271	1091.929546	476.488806	-271.425746	1034.056194	438.320027	-201.219541	754.114411	388.452805	-370.287867	682.122136	323.307705	-411.662274	636.753137	227.252880	-335.625484	793.327296	296.938560	-278.502990	970.767887	145.228800	-279.970279	897.339056	165.134451	-192.783336	465.249837	156.491927	-313.370169	682.244315	 68.235753	-294.710685	605.307690	 60.101805	-381.976408	983.923259	1535.285952	-490.302400	916.736012	1544.760645	-153.063757	993.773989	1483.533691	-275.540843	876.075411	1573.895683	-334.712235	846.849484	1469.483030	-78.439775	806.662898	1386.825373	-85.873800	735.216594	1419.994469	-72.473227	641.152761	1315.751834	-43.620457	628.126152	1317.624769	-126.461506	979.297990	1440.523503	-563.662017	989.561136	1368.394712	-553.138235	897.343031	1351.921020	-581.516885	915.005922	1191.224869	-632.006351	855.354136	1176.782869	-566.743741	722.687421	1244.720049	-37.314732	851.758994	1144.386894	-115.602532	816.852243	1112.400122	-60.161381	1003.203435	1206.426684	-587.101662	1105.140005	1254.374524	-446.670849	1128.624759	1189.046100	-467.699786	981.045760	352.777788	-268.820021	
480	  4.000000	924.775819	1068.254820	-465.403047	940.009985	1071.206032	-207.313225	752.251213	1110.014982	-360.057847	754.379597	1103.320922	-276.781080	929.339221	913.059184	-151.649988	1034.599578	849.240862	-163.787981	1028.501794	721.539208	-184.992306	824.693136	858.923758	-500.197756	856.945246	728.355452	-478.924037	765.558764	630.561024	-451.480157	1102.387956	478.732807	-271.818614	1047.136898	435.883197	-202.164616	735.292154	395.144213	-371.345491	662.573120	330.989868	-412.736769	617.396880	234.283610	-336.882650	819.174016	276.540074	-281.524953	1007.221991	138.101153	-284.199715	932.164133	151.475710	-197.027383	446.919446	167.042204	-314.289831	658.958838	 67.844561	-295.219509	582.025859	 62.713864	-382.395069	985.658784	1542.104909	-488.828090	915.233130	1550.947845	-152.914077	993.202473	1489.948904	-274.358110	876.190626	1579.494856	-334.714417	843.749844	1477.696092	-79.463046	802.273933	1395.597873	-87.713208	731.116285	1430.022450	-76.068584	634.645954	1326.983460	-48.966363	623.365472	1329.115936	-132.202676	982.190270	1447.503966	-562.366700	991.794707	1375.294577	-551.902564	899.857454	1359.657949	-582.082649	917.047504	1198.387449	-631.578161	856.400312	1184.264783	-566.849288	715.190037	1255.198392	-40.968855	845.284554	1153.864421	-116.610512	809.141771	1122.173410	-61.819431	1004.662283	1214.501942	-585.700789	1103.627709	1264.434074	-443.876345	1128.266894	1199.062636	-464.063791	999.208200	347.710604	-270.214018	
